<svg xmlns="http://www.w3.org/2000/svg" xmlns:xlink="http://www.w3.org/1999/xlink" width="500" zoomAndPan="magnify" viewBox="0 0 375 374.999991" height="500" preserveAspectRatio="xMidYMid meet" version="1.2"><defs><clipPath id="a80c429056"><path d="M 0 0 L 374.730469 0 L 374.730469 374.730469 L 0 374.730469 Z M 0 0 "/></clipPath><clipPath id="17d3abeb21"><path d="M 85.472656 65.601562 L 289.320312 65.601562 L 289.320312 309.351562 L 85.472656 309.351562 Z M 85.472656 65.601562 "/></clipPath></defs><g id="bb0b126ac6"><g clip-rule="nonzero" clip-path="url(#a80c429056)"><path style=" stroke:none;fill-rule:nonzero;fill:#5f66c9;fill-opacity:1;" d="M 374.726562 187.363281 C 374.726562 190.429688 374.652344 193.492188 374.5 196.558594 C 374.351562 199.621094 374.125 202.675781 373.824219 205.726562 C 373.523438 208.78125 373.148438 211.820312 372.699219 214.855469 C 372.25 217.886719 371.722656 220.910156 371.125 223.914062 C 370.527344 226.921875 369.855469 229.914062 369.113281 232.890625 C 368.367188 235.863281 367.546875 238.816406 366.660156 241.75 C 365.769531 244.6875 364.808594 247.597656 363.773438 250.484375 C 362.742188 253.371094 361.636719 256.230469 360.464844 259.0625 C 359.289062 261.898438 358.046875 264.699219 356.738281 267.472656 C 355.425781 270.242188 354.046875 272.980469 352.601562 275.6875 C 351.15625 278.390625 349.644531 281.058594 348.070312 283.6875 C 346.492188 286.316406 344.855469 288.90625 343.148438 291.457031 C 341.445312 294.007812 339.679688 296.511719 337.855469 298.976562 C 336.027344 301.4375 334.140625 303.855469 332.195312 306.226562 C 330.25 308.59375 328.25 310.917969 326.191406 313.1875 C 324.132812 315.460938 322.015625 317.679688 319.847656 319.847656 C 317.679688 322.015625 315.460938 324.132812 313.1875 326.191406 C 310.917969 328.25 308.59375 330.25 306.226562 332.195312 C 303.855469 334.140625 301.4375 336.027344 298.976562 337.855469 C 296.511719 339.679688 294.007812 341.445312 291.457031 343.148438 C 288.90625 344.855469 286.316406 346.492188 283.6875 348.070312 C 281.058594 349.644531 278.390625 351.15625 275.6875 352.601562 C 272.980469 354.046875 270.242188 355.425781 267.472656 356.738281 C 264.699219 358.046875 261.898438 359.289062 259.0625 360.464844 C 256.230469 361.636719 253.371094 362.742188 250.484375 363.773438 C 247.597656 364.808594 244.6875 365.769531 241.75 366.660156 C 238.816406 367.546875 235.863281 368.367188 232.890625 369.113281 C 229.914062 369.855469 226.921875 370.527344 223.914062 371.125 C 220.910156 371.722656 217.886719 372.25 214.855469 372.699219 C 211.820312 373.148438 208.78125 373.523438 205.726562 373.824219 C 202.675781 374.125 199.621094 374.351562 196.558594 374.5 C 193.492188 374.652344 190.429688 374.726562 187.363281 374.726562 C 184.296875 374.726562 181.234375 374.652344 178.167969 374.5 C 175.105469 374.351562 172.050781 374.125 169 373.824219 C 165.945312 373.523438 162.90625 373.148438 159.871094 372.699219 C 156.839844 372.25 153.816406 371.722656 150.808594 371.125 C 147.804688 370.527344 144.8125 369.855469 141.835938 369.113281 C 138.863281 368.367188 135.910156 367.546875 132.972656 366.660156 C 130.039062 365.769531 127.128906 364.808594 124.242188 363.773438 C 121.355469 362.742188 118.496094 361.636719 115.664062 360.464844 C 112.828125 359.289062 110.027344 358.046875 107.253906 356.738281 C 104.484375 355.425781 101.746094 354.046875 99.039062 352.601562 C 96.335938 351.15625 93.667969 349.644531 91.039062 348.070312 C 88.410156 346.492188 85.820312 344.855469 83.269531 343.148438 C 80.71875 341.445312 78.214844 339.679688 75.75 337.855469 C 73.289062 336.027344 70.871094 334.140625 68.5 332.195312 C 66.132812 330.25 63.808594 328.25 61.539062 326.191406 C 59.265625 324.132812 57.046875 322.015625 54.878906 319.847656 C 52.710938 317.679688 50.59375 315.460938 48.535156 313.1875 C 46.476562 310.917969 44.476562 308.59375 42.53125 306.226562 C 40.585938 303.855469 38.699219 301.4375 36.871094 298.976562 C 35.046875 296.511719 33.28125 294.007812 31.578125 291.457031 C 29.871094 288.90625 28.234375 286.316406 26.65625 283.6875 C 25.078125 281.058594 23.570312 278.390625 22.125 275.6875 C 20.679688 272.980469 19.300781 270.242188 17.988281 267.472656 C 16.679688 264.699219 15.4375 261.898438 14.261719 259.0625 C 13.089844 256.230469 11.984375 253.371094 10.953125 250.484375 C 9.917969 247.597656 8.957031 244.6875 8.066406 241.75 C 7.175781 238.816406 6.359375 235.863281 5.613281 232.890625 C 4.871094 229.914062 4.199219 226.921875 3.601562 223.914062 C 3 220.910156 2.476562 217.886719 2.027344 214.855469 C 1.578125 211.820312 1.203125 208.78125 0.902344 205.726562 C 0.601562 202.675781 0.375 199.621094 0.226562 196.558594 C 0.0742188 193.492188 0 190.429688 0 187.363281 C 0 184.296875 0.0742188 181.234375 0.226562 178.167969 C 0.375 175.105469 0.601562 172.050781 0.902344 169 C 1.203125 165.945312 1.578125 162.90625 2.027344 159.871094 C 2.476562 156.839844 3 153.816406 3.601562 150.808594 C 4.199219 147.804688 4.871094 144.8125 5.613281 141.835938 C 6.359375 138.863281 7.175781 135.910156 8.066406 132.972656 C 8.957031 130.039062 9.917969 127.128906 10.953125 124.242188 C 11.984375 121.355469 13.089844 118.496094 14.261719 115.664062 C 15.4375 112.828125 16.679688 110.027344 17.988281 107.253906 C 19.300781 104.484375 20.679688 101.746094 22.125 99.039062 C 23.570312 96.335938 25.078125 93.667969 26.65625 91.039062 C 28.234375 88.410156 29.871094 85.820312 31.578125 83.269531 C 33.28125 80.71875 35.046875 78.214844 36.871094 75.75 C 38.699219 73.289062 40.585938 70.871094 42.53125 68.5 C 44.476562 66.132812 46.476562 63.808594 48.535156 61.539062 C 50.59375 59.265625 52.710938 57.046875 54.878906 54.878906 C 57.046875 52.710938 59.265625 50.59375 61.539062 48.535156 C 63.808594 46.476562 66.132812 44.476562 68.5 42.53125 C 70.871094 40.585938 73.289062 38.699219 75.75 36.871094 C 78.214844 35.046875 80.71875 33.28125 83.269531 31.578125 C 85.820312 29.871094 88.410156 28.234375 91.039062 26.65625 C 93.667969 25.078125 96.335938 23.570312 99.039062 22.125 C 101.746094 20.679688 104.484375 19.300781 107.253906 17.988281 C 110.027344 16.679688 112.828125 15.4375 115.664062 14.261719 C 118.496094 13.089844 121.355469 11.984375 124.242188 10.953125 C 127.128906 9.917969 130.039062 8.957031 132.972656 8.066406 C 135.910156 7.175781 138.863281 6.359375 141.835938 5.613281 C 144.8125 4.871094 147.804688 4.199219 150.808594 3.601562 C 153.816406 3 156.839844 2.476562 159.871094 2.027344 C 162.90625 1.578125 165.945312 1.203125 169 0.902344 C 172.050781 0.601562 175.105469 0.375 178.167969 0.226562 C 181.230469 0.0742188 184.296875 0 187.363281 0 C 190.429688 0 193.492188 0.0742188 196.558594 0.226562 C 199.621094 0.375 202.675781 0.601562 205.726562 0.902344 C 208.78125 1.203125 211.820312 1.578125 214.855469 2.027344 C 217.886719 2.476562 220.910156 3 223.914062 3.601562 C 226.921875 4.199219 229.914062 4.871094 232.890625 5.613281 C 235.863281 6.359375 238.816406 7.175781 241.75 8.066406 C 244.6875 8.957031 247.597656 9.917969 250.484375 10.953125 C 253.371094 11.984375 256.230469 13.089844 259.0625 14.261719 C 261.898438 15.4375 264.699219 16.679688 267.472656 17.988281 C 270.242188 19.300781 272.980469 20.679688 275.6875 22.125 C 278.390625 23.570312 281.058594 25.078125 283.6875 26.65625 C 286.316406 28.234375 288.90625 29.871094 291.457031 31.578125 C 294.007812 33.28125 296.511719 35.046875 298.976562 36.871094 C 301.4375 38.699219 303.855469 40.585938 306.226562 42.53125 C 308.59375 44.476562 310.917969 46.476562 313.1875 48.535156 C 315.460938 50.59375 317.679688 52.710938 319.847656 54.878906 C 322.015625 57.046875 324.132812 59.265625 326.191406 61.539062 C 328.25 63.808594 330.25 66.132812 332.195312 68.5 C 334.140625 70.871094 336.027344 73.289062 337.855469 75.75 C 339.679688 78.214844 341.445312 80.71875 343.148438 83.269531 C 344.855469 85.820312 346.492188 88.410156 348.070312 91.039062 C 349.644531 93.667969 351.15625 96.335938 352.601562 99.039062 C 354.046875 101.746094 355.425781 104.484375 356.738281 107.253906 C 358.046875 110.027344 359.289062 112.828125 360.464844 115.664062 C 361.636719 118.496094 362.742188 121.355469 363.773438 124.242188 C 364.808594 127.128906 365.769531 130.039062 366.660156 132.972656 C 367.546875 135.910156 368.367188 138.863281 369.113281 141.835938 C 369.855469 144.8125 370.527344 147.804688 371.125 150.808594 C 371.722656 153.816406 372.25 156.839844 372.699219 159.871094 C 373.148438 162.90625 373.523438 165.945312 373.824219 169 C 374.125 172.050781 374.351562 175.105469 374.5 178.167969 C 374.652344 181.230469 374.726562 184.296875 374.726562 187.363281 Z M 374.726562 187.363281 "/></g><g clip-rule="nonzero" clip-path="url(#17d3abeb21)"><path style=" stroke:none;fill-rule:evenodd;fill:#ffffff;fill-opacity:1;" d="M 187.335938 65.605469 C 219.644531 91.355469 264.589844 106.304688 289.289062 113.089844 C 284.996094 272.316406 204.914062 304.125 187.597656 309.148438 C 170.375 304.023438 90.863281 271.804688 85.503906 113.054688 C 110.222656 106.25 155.074219 91.296875 187.335938 65.605469 Z M 187.335938 65.605469 "/></g><path style=" stroke:none;fill-rule:evenodd;fill:#ffffff;fill-opacity:1;" d="M 141.070312 180.117188 L 140.855469 179.695312 L 140.402344 179.8125 L 140.730469 180.070312 C 140.84375 180.105469 140.957031 180.121094 141.070312 180.117188 Z M 141.070312 180.117188 "/><path style=" stroke:none;fill-rule:evenodd;fill:#ffffff;fill-opacity:1;" d="M 141.824219 179.753906 C 141.691406 179.878906 141.539062 179.976562 141.410156 180.046875 C 141.511719 180.007812 141.617188 179.949219 141.71875 179.859375 C 141.75 179.832031 141.785156 179.796875 141.824219 179.753906 Z M 141.824219 179.753906 "/></g></svg>